<?xml version="1.0" encoding="utf-8"?>
<!-- Generator: Adobe Illustrator 24.2.1, SVG Export Plug-In . SVG Version: 6.00 Build 0)  -->
<svg version="1.1" id="Capa_1" xmlns="http://www.w3.org/2000/svg" xmlns:xlink="http://www.w3.org/1999/xlink" x="0px" y="0px"
	 width="488.6px" height="83.1px" viewBox="0 0 488.6 83.1" style="enable-background:new 0 0 488.6 83.1;" xml:space="preserve">
<style type="text/css">
	.st0{fill:#273BBE;}
	.st1{fill:#FFFFFF;}
	.st2{fill:#FF0D6D;}
</style>
<path class="st0" d="M35.3,7.1c3.6,0,7,0.5,10.3,1.5c1.5,0.5-1.9,8.5-0.4,9.1c2.3,1,9.3-5.1,11.3-3.6c8.6,6.4,14.1,16.7,14.1,28.2
	c0,19.5-15.8,35.3-35.3,35.3S0,61.9,0,42.4C0,22.9,15.8,7.1,35.3,7.1"/>
<g>
	<path class="st1" d="M94.6,23.9c-0.3-0.9-0.9-1.6-1.6-2.1c-0.7-0.5-1.5-0.7-2.3-0.7c-0.9-0.1-1.7,0.1-2.5,0.6
		c-0.8,0.5-1.3,1.2-1.7,2.1L71.1,61.1c-0.1,0.5-0.2,0.9-0.2,1.3c0,1,0.3,1.9,0.9,2.6c0.6,0.7,1.6,1.1,2.9,1.1c0.8,0,1.6-0.3,2.2-0.7
		c0.7-0.5,1.2-1.2,1.5-2l3.1-7.3h17.8l3.1,7.2c0.4,0.9,0.9,1.6,1.6,2.1c0.7,0.5,1.5,0.8,2.3,0.8c1,0,1.9-0.4,2.7-1.1
		c0.8-0.8,1.2-1.8,1.2-3c0-0.5-0.1-1.1-0.3-1.7L94.6,23.9z M84.9,47.9l5.4-12.8l5.5,12.8H84.9z"/>
	<path class="st1" d="M137,33c-1.6-1.4-4-2-7.1-2c-1.4,0-2.8,0.2-4,0.7c-1.2,0.4-2.3,1-3.3,1.8c-0.9,0.6-1.6,1.3-2.2,2V23.2
		c0-1.2-0.4-2.2-1.2-3c-0.8-0.8-1.8-1.2-3-1.2c-1.2,0-2.2,0.4-3,1.2c-0.8,0.8-1.2,1.8-1.2,3v38.4c0,1.2,0.4,2.2,1.2,3
		c0.8,0.8,1.8,1.2,3,1.2c1.2,0,2.2-0.4,3-1.2c0.8-0.8,1.2-1.8,1.2-3V45.7c0-1.3,0.3-2.4,0.8-3.5c0.5-1,1.3-1.8,2.3-2.4
		c1-0.6,2.3-0.9,3.8-0.9c1.5,0,2.6,0.3,3.4,0.9c0.8,0.6,1.3,1.4,1.6,2.4c0.3,1,0.5,2.2,0.5,3.6v15.9c0,1.2,0.4,2.2,1.2,3
		c0.8,0.8,1.8,1.2,3,1.2c1.2,0,2.2-0.4,3-1.2c0.8-0.8,1.2-1.8,1.2-3V45.7c0-2.6-0.3-5.1-0.9-7.2C139.8,36.2,138.7,34.4,137,33z"/>
	<path class="st1" d="M169.6,33.3c-2.6-1.5-5.6-2.3-8.8-2.3c-3.2,0-6.2,0.8-8.8,2.3c-2.6,1.5-4.7,3.6-6.3,6.3
		c-1.5,2.7-2.3,5.8-2.3,9.2c0,3.5,0.8,6.6,2.3,9.2c1.5,2.7,3.6,4.7,6.3,6.2c2.6,1.5,5.6,2.2,8.8,2.2c3.2,0,6.2-0.8,8.8-2.2
		c2.6-1.5,4.7-3.6,6.3-6.2c1.5-2.7,2.3-5.8,2.3-9.2c0-3.5-0.8-6.6-2.3-9.2C174.3,36.9,172.2,34.8,169.6,33.3z M169.7,48.8
		c0,2-0.4,3.7-1.2,5.2c-0.8,1.5-1.9,2.6-3.2,3.4c-1.3,0.8-2.8,1.2-4.5,1.2c-1.6,0-3.1-0.4-4.5-1.2c-1.3-0.8-2.4-2-3.2-3.4
		c-0.8-1.5-1.2-3.2-1.2-5.2c0-2,0.4-3.8,1.2-5.3c0.8-1.5,1.9-2.6,3.2-3.4c1.3-0.8,2.8-1.2,4.5-1.2c1.6,0,3.1,0.4,4.5,1.2
		c1.3,0.8,2.4,2,3.2,3.4C169.3,45,169.7,46.7,169.7,48.8z"/>
	<path class="st1" d="M203.1,32.2c-0.9-0.8-2.1-1.2-3.4-1.2c-1.1,0-2.2,0.1-3.2,0.4c-1.1,0.3-2.1,0.7-3,1.2c-1,0.5-1.8,1.2-2.6,2
		c-0.2,0.2-0.4,0.4-0.5,0.6c-0.1-0.9-0.5-1.7-1.1-2.3c-0.8-0.8-1.8-1.2-3-1.2c-1.2,0-2.2,0.4-3,1.2c-0.8,0.8-1.2,1.8-1.2,3v25.6
		c0,1.2,0.4,2.2,1.2,3c0.8,0.8,1.8,1.2,3,1.2c1.2,0,2.2-0.4,3-1.2c0.8-0.8,1.2-1.8,1.2-3V46.8c0-1.4,0.2-2.7,0.6-3.7
		c0.4-1,0.9-1.9,1.5-2.6c0.6-0.7,1.2-1.2,1.9-1.5c1.5-0.7,3-0.6,4-0.1c0.7,0.3,1.5,0.5,2.3,0.5c0.9,0,1.8-0.3,2.6-1
		c0.8-0.7,1.2-1.8,1.2-3.3C204.6,33.9,204.1,33,203.1,32.2z"/>
	<path class="st1" d="M229,32.2c-0.9-0.8-2.1-1.2-3.4-1.2c-1.1,0-2.2,0.1-3.2,0.4c-1.1,0.3-2.1,0.7-3,1.2c-1,0.5-1.8,1.2-2.6,2
		c-0.2,0.2-0.4,0.4-0.5,0.6c-0.1-0.9-0.5-1.7-1.1-2.3c-0.8-0.8-1.8-1.2-3-1.2s-2.2,0.4-3,1.2c-0.8,0.8-1.2,1.8-1.2,3v25.6
		c0,1.2,0.4,2.2,1.2,3c0.8,0.8,1.8,1.2,3,1.2s2.2-0.4,3-1.2c0.8-0.8,1.2-1.8,1.2-3V46.8c0-1.4,0.2-2.7,0.6-3.7
		c0.4-1,0.9-1.9,1.5-2.6c0.6-0.7,1.2-1.2,1.9-1.5c1.5-0.7,3-0.6,4-0.1c0.7,0.3,1.5,0.5,2.3,0.5c0.9,0,1.8-0.3,2.6-1
		c0.8-0.7,1.2-1.8,1.2-3.3C230.5,33.9,230,33,229,32.2z"/>
	<path class="st1" d="M260,31c-1.2,0-2.2,0.4-3,1.2c-0.6,0.6-0.9,1.3-1.1,2.1c-0.2-0.1-0.3-0.3-0.5-0.4c-1.1-0.9-2.5-1.6-4-2.1
		c-1.5-0.6-3.2-0.8-5.1-0.8c-2.9,0-5.5,0.8-7.8,2.3c-2.3,1.5-4.2,3.6-5.6,6.3c-1.4,2.6-2.1,5.7-2.1,9.2c0,3.4,0.7,6.5,2.1,9.1
		c1.4,2.7,3.3,4.8,5.7,6.3c2.4,1.5,5.1,2.3,8,2.3c1.6,0,3.2-0.3,4.5-0.8c1.4-0.5,2.6-1.2,3.6-2c0.4-0.3,0.8-0.7,1.2-1
		c0.2,0.7,0.5,1.4,1.1,1.9c0.8,0.8,1.8,1.2,3,1.2s2.2-0.4,3-1.2c0.8-0.8,1.2-1.8,1.2-3V35.3c0-1.2-0.4-2.3-1.2-3.1
		C262.3,31.4,261.2,31,260,31z M256.1,48.8c0,1.9-0.4,3.6-1.1,5.1c-0.7,1.5-1.7,2.7-3,3.5c-1.3,0.9-2.8,1.3-4.5,1.3
		c-1.7,0-3.2-0.4-4.4-1.3c-1.3-0.9-2.3-2-3-3.5c-0.7-1.5-1.1-3.2-1.1-5.1c0-1.9,0.4-3.6,1.1-5.1c0.7-1.5,1.7-2.7,3-3.5
		c1.3-0.9,2.8-1.3,4.4-1.3c1.7,0,3.2,0.4,4.5,1.3c1.3,0.9,2.3,2,3,3.5C255.8,45.1,256.1,46.9,256.1,48.8z"/>
	<path class="st1" d="M299.5,44.6c-1.3-1-2.8-1.8-4.6-2.5c-1.7-0.6-3.6-1.2-5.7-1.7c-1.8-0.5-3.5-1.1-5-1.7
		c-1.5-0.6-2.6-1.4-3.5-2.4c-0.8-0.9-1.2-2.1-1.2-3.5c0-1.3,0.4-2.4,1.1-3.3c0.7-0.9,1.8-1.7,3.2-2.2c1.4-0.5,3-0.8,4.8-0.8
		c1.2,0,2.5,0.2,3.7,0.5c1.2,0.4,2.4,0.8,3.4,1.4c1,0.6,1.9,1.3,2.6,2.1c0.5,0.4,1,0.5,1.5,0.5c0.8,0,1.5-0.3,2.1-0.9
		c0.6-0.6,0.9-1.3,0.9-2c0-0.9-0.5-1.8-1.4-2.7c-1.4-1.5-3.3-2.7-5.6-3.5c-2.3-0.8-4.8-1.3-7.3-1.3c-2.9,0-5.5,0.5-7.8,1.5
		c-2.3,1-4.1,2.5-5.4,4.3c-1.3,1.8-1.9,4-1.9,6.5c0,2,0.3,3.7,1,5.1c0.7,1.4,1.6,2.7,2.9,3.7c1.2,1,2.6,1.8,4.3,2.5
		c1.6,0.6,3.4,1.2,5.3,1.7c2.1,0.5,4,1.1,5.6,1.8c1.6,0.7,2.8,1.5,3.7,2.5c0.9,1,1.3,2.2,1.3,3.8c0,1.3-0.4,2.3-1.2,3.3
		c-0.8,1-1.9,1.7-3.3,2.3c-1.4,0.6-3,0.8-4.7,0.8c-2.3,0-4.3-0.4-6.2-1.2c-1.8-0.8-3.5-2-5.1-3.5c-0.6-0.5-1.2-0.8-1.9-0.8
		c-0.8,0-1.6,0.3-2.1,0.9c-0.6,0.6-0.8,1.3-0.8,2.1c0,0.5,0.1,1,0.3,1.4c0.2,0.4,0.5,0.8,0.8,1.1c2.2,2,4.5,3.5,6.9,4.4
		c2.4,0.9,5.1,1.4,8.2,1.4c2.8,0,5.4-0.5,7.7-1.6c2.3-1.1,4.1-2.5,5.4-4.4c1.3-1.9,2-4,2-6.4c0-2.2-0.4-4.1-1.1-5.6
		C301.8,46.9,300.8,45.6,299.5,44.6z"/>
	<path class="st1" d="M332.1,36.2c-1.4-1.4-3.1-2.5-4.9-3.2c-1.8-0.7-3.7-1.1-5.7-1.1c-2.6,0-5.2,0.7-7.5,2.1
		c-2.4,1.4-4.3,3.4-5.8,6c-1.5,2.6-2.2,5.8-2.2,9.5c0,3.3,0.7,6.3,2.1,8.8c1.4,2.5,3.4,4.5,6,6c2.5,1.4,5.5,2.2,8.9,2.2
		c2.3,0,4.5-0.5,6.5-1.5c2-1,3.7-2.1,4.8-3.4c0.8-0.7,1.2-1.5,1.2-2.3c0-0.7-0.3-1.3-0.8-1.8c-0.9-0.9-2.3-1.1-3.7-0.1l-0.1,0.1
		c-0.5,0.6-1.2,1.1-1.9,1.6c-0.7,0.5-1.6,1-2.6,1.3c-1,0.4-2.2,0.5-3.6,0.5c-2.2,0-4.1-0.5-5.8-1.5c-1.6-1-3-2.4-3.9-4.1
		c-0.7-1.4-1.2-2.9-1.3-4.7h21.9c0.8,0,1.5-0.3,2.1-0.8c0.6-0.5,0.9-1.2,1-2c0-2.4-0.5-4.6-1.3-6.5
		C334.7,39.3,333.5,37.6,332.1,36.2z M312.7,43.8c0.5-1.5,1.3-2.6,2.2-3.5c0.9-0.9,2-1.6,3.1-2c2.6-1,5.3-0.8,7.7,0.3
		c1.3,0.6,2.4,1.5,3.4,2.7c0.9,1.1,1.4,2.5,1.6,4.1h-18.4C312.3,44.7,312.5,44.2,312.7,43.8z"/>
	<path class="st1" d="M368.4,32.4c-0.9,0-1.6,0.3-2.2,0.9c-0.5,0.6-0.8,1.3-0.8,2.1v1.4c-0.5-0.5-1-1.1-1.6-1.6
		c-1.2-1-2.6-1.8-4.1-2.4c-1.6-0.6-3.3-0.9-5.1-0.9c-2.9,0-5.6,0.7-8,2.2c-2.4,1.5-4.3,3.5-5.6,6.1c-1.4,2.6-2.1,5.6-2.1,8.9
		c0,3.3,0.7,6.3,2.1,8.9c1.4,2.6,3.3,4.7,5.7,6.1c2.4,1.5,5.1,2.3,8.1,2.3c1.4,0,2.8-0.2,4.2-0.7c1.4-0.4,2.6-1.1,3.8-1.9
		c1.1-0.8,2-1.7,2.8-2.7v1.9c0,2.9-0.9,5.2-2.7,6.9c-1.8,1.7-4.4,2.6-7.7,2.6c-0.9,0-1.9-0.1-2.9-0.3c-1-0.2-1.9-0.5-2.7-0.8
		c-0.8-0.3-1.4-0.5-1.7-0.6c-1-0.4-1.8-0.6-2.5-0.6c-0.8,0-1.4,0.4-1.9,1.1c-0.4,0.6-0.5,1.3-0.3,1.9c0.2,0.6,0.6,1.1,1.3,1.6
		c0.4,0.6,1.1,1.1,2.4,1.6c1.2,0.5,2.6,0.9,4.1,1.2c1.5,0.3,3,0.5,4.2,0.5c3,0,5.8-0.6,8.2-1.7c2.5-1.1,4.5-2.9,5.9-5.2
		c1.5-2.3,2.2-5.3,2.2-8.7V35.4c0-0.8-0.3-1.5-0.8-2.1C370,32.7,369.3,32.4,368.4,32.4z M365.6,49.2c0,2.3-0.5,4.3-1.4,6
		c-0.9,1.7-2.2,3.1-3.7,4.1c-1.6,1-3.4,1.5-5.4,1.5c-2,0-3.9-0.5-5.4-1.5c-1.6-1-2.8-2.4-3.7-4.2c-0.9-1.8-1.4-3.8-1.4-5.9
		c0-2.2,0.5-4.3,1.4-6c0.9-1.8,2.2-3.2,3.7-4.2c1.6-1,3.4-1.5,5.4-1.5c2,0,3.8,0.5,5.4,1.5c1.6,1,2.8,2.4,3.7,4.1
		C365.2,44.9,365.6,46.9,365.6,49.2z"/>
	<path class="st1" d="M400.2,32.7c-0.9,0-1.6,0.3-2.2,0.9c-0.5,0.6-0.8,1.3-0.8,2.2v16.9c0,2.7-0.7,4.7-2,6c-1.3,1.3-3.3,2-5.8,2
		c-2.5,0-4.4-0.7-5.7-2c-1.3-1.3-2-3.4-2-6V35.8c0-0.9-0.3-1.6-0.8-2.2c-0.6-0.6-1.3-0.9-2.2-0.9c-0.8,0-1.5,0.3-2.1,0.9
		c-0.6,0.6-0.9,1.3-0.9,2.2v16.9c0,4.3,1.2,7.7,3.7,10.1c2.4,2.4,5.8,3.6,10,3.6c4.3,0,7.7-1.2,10.1-3.6c2.4-2.4,3.7-5.8,3.7-10.1
		V35.8c0-0.9-0.3-1.6-0.8-2.2C401.8,33,401.1,32.7,400.2,32.7z"/>
	<path class="st1" d="M425.9,32.6c-0.8-0.5-1.8-0.7-2.8-0.7c-1.6,0-3.1,0.3-4.4,0.9c-1.3,0.6-2.5,1.4-3.6,2.4
		c-0.9,0.8-1.6,1.8-2.2,2.8v-2.2c0-0.9-0.3-1.6-0.8-2.2c-0.6-0.6-1.3-0.9-2.2-0.9c-0.8,0-1.5,0.3-2.1,0.9c-0.6,0.6-0.9,1.3-0.9,2.2
		v27c0,0.8,0.3,1.6,0.9,2.1c0.6,0.6,1.3,0.9,2.1,0.9c0.8,0,1.6-0.3,2.1-0.9c0.6-0.6,0.9-1.3,0.9-2.1V47.7c0-1.4,0.2-2.8,0.7-4
		c0.5-1.2,1.2-2.4,2-3.3c0.8-1,1.7-1.7,2.7-2.3c0.9-0.5,1.9-0.8,2.8-0.8c0.7,0,1.2,0.1,1.6,0.3c1.2,0.6,2.6,0.6,3.7-0.4
		c0.6-0.5,0.8-1.3,0.8-2.3C427.3,34,426.9,33.2,425.9,32.6z"/>
	<path class="st1" d="M452.9,34.2c-2.5-1.5-5.3-2.2-8.5-2.2c-3.1,0-5.9,0.8-8.4,2.2c-2.5,1.5-4.5,3.6-6,6.1
		c-1.5,2.6-2.2,5.6-2.2,8.9s0.7,6.3,2.2,8.9c1.5,2.6,3.5,4.7,6,6.1c2.5,1.5,5.3,2.2,8.4,2.2c3.1,0,6-0.8,8.5-2.2
		c2.5-1.5,4.5-3.6,5.9-6.1c1.4-2.6,2.2-5.6,2.2-8.9s-0.7-6.3-2.2-8.9C457.4,37.7,455.4,35.7,452.9,34.2z M455.1,49.2
		c0,2.3-0.5,4.3-1.4,6c-0.9,1.7-2.2,3.1-3.8,4.1c-1.6,1-3.4,1.5-5.4,1.5c-2,0-3.8-0.5-5.4-1.5c-1.6-1-2.9-2.4-3.8-4.1
		c-0.9-1.7-1.4-3.8-1.4-6c0-2.3,0.5-4.3,1.4-6.1c0.9-1.7,2.2-3.1,3.8-4.1c1.6-1,3.4-1.5,5.4-1.5c2,0,3.8,0.5,5.4,1.5
		c1.6,1,2.9,2.4,3.8,4.1C454.6,44.8,455.1,46.9,455.1,49.2z"/>
	<path class="st1" d="M487.7,52.4c-0.6-1.2-1.5-2.1-2.5-2.9c-1-0.7-2.2-1.3-3.4-1.8c-1.2-0.4-2.5-0.8-3.8-1.2
		c-1.4-0.4-2.7-0.8-3.9-1.3c-1.1-0.4-2-0.9-2.7-1.6c-0.6-0.6-0.9-1.4-1-2.4c0-1.1,0.3-1.9,0.8-2.4c0.6-0.6,1.3-1,2.2-1.3
		c0.9-0.3,1.8-0.4,2.7-0.4c1.5,0,2.9,0.3,4.1,0.8c1.2,0.5,2.3,1.3,3.2,2.3c0.5,0.5,1,0.7,1.7,0.7c0.7,0,1.3-0.2,1.9-0.6
		c0.7-0.6,1-1.3,1-2.1c0-0.7-0.3-1.4-0.7-1.8c-0.9-1.2-2.1-2.1-3.3-2.8c-1.2-0.7-2.5-1.1-3.8-1.4c-3.6-0.8-6.8-0.5-9.6,0.7
		c-1.8,0.8-3.2,1.9-4.3,3.3c-1.1,1.4-1.6,3.2-1.6,5.1c0,1.7,0.3,3.2,1,4.3c0.7,1.2,1.6,2.1,2.7,2.9c1.1,0.7,2.3,1.4,3.7,1.8
		c1.3,0.4,2.7,0.9,4.1,1.3c1.3,0.3,2.5,0.7,3.6,1.1c1.1,0.4,1.9,0.9,2.6,1.6c0.6,0.6,0.9,1.4,0.9,2.4c0,1.1-0.3,1.9-0.9,2.5
		c-0.6,0.7-1.4,1.1-2.3,1.4c-1,0.3-1.9,0.4-2.8,0.5c-2.1,0-3.8-0.4-5.2-1.2c-1.4-0.8-2.7-1.8-3.8-3.2c-0.5-0.6-1.2-0.9-1.9-1
		c-0.7,0-1.3,0.1-1.8,0.5c-0.8,0.5-1.2,1.2-1.2,2c0,0.7,0.2,1.4,0.5,2l0,0c1.7,2.2,3.7,3.7,6,4.6c2.3,0.9,4.6,1.3,6.9,1.3
		c2.1,0,4-0.4,5.9-1.1c1.8-0.8,3.3-1.9,4.4-3.3c1.1-1.5,1.7-3.2,1.7-5.2C488.6,55,488.3,53.6,487.7,52.4z"/>
</g>
<g>
	<g>
		<path class="st2" d="M64.7,21.5l-6.6-18c-0.9-2.5-3.8-4-6.4-3.3L33.4,5.3c-2.6,0.7-5.7,3.3-7,5.7l-4.5,8.8
			c0.5-0.1,0.9-0.1,1.4-0.1c3.1-0.1,6.3,0.5,9.6,1.8c3,1.2,5.6,2.8,7.8,4.8c2.2,2,3.8,4.2,4.8,6.4c0.7,1.5,0.9,2.8,0.4,4
			c-0.4,0.9-1,1.6-2,2.1c-1,0.5-2,0.5-2.9,0.2c-0.7-0.3-1.2-0.7-1.5-1.3c-0.4-1.1-1.1-2.3-2.2-3.5c-1-1.2-2.2-2.3-3.4-3.3
			c-1.3-1-2.6-1.8-3.9-2.3c-2.1-0.9-4.1-1.3-5.9-1.3c-1.8,0-3.3,0.4-4.5,1.1c-1.2,0.7-2.1,1.8-2.7,3.2c-0.7,1.7-0.8,3.2-0.3,4.7
			c0.5,1.5,1.4,2.9,2.8,4.2c1.4,1.3,3.1,2.7,5,4.1c2.4,1.6,4.5,3.2,6.2,4.8c1.8,1.6,3.1,3.2,4.1,5c1,1.7,1.5,3.6,1.5,5.6
			c0.1,2-0.4,4.3-1.4,6.9c-1.2,3-3,5.2-5.5,6.8c-2.5,1.6-5.3,2.4-8.5,2.6c-0.4,0-0.8,0-1.2,0l11.9,6.2c2.4,1.2,5.4,0.3,6.6-2.1
			l25.9-50C65.3,28,65.6,24,64.7,21.5z M53.5,12.6C53.5,12.6,53.5,12.6,53.5,12.6c-1,1.9-3.2,2.6-5.1,1.6c0,0,0,0,0,0
			c-1.9-1-2.6-3.2-1.6-5.1s3.2-2.6,5.1-1.6C53.7,8.5,54.4,10.8,53.5,12.6z"/>
		<path class="st2" d="M2.9,58C4,60.5,6,62.8,7.6,64.5c1.6,1.7,3.8,2.5,6.4,3.6c1.9,0.8,4,0.8,5.8,0.8c1.9,0,3.3-0.6,4.7-1.3
			c1.4-0.7,2.4-1.8,2.9-3.2c0.7-1.8,0.8-3.4,0.3-5c-0.5-1.6-1.5-3.1-3.1-4.6c-1.5-1.5-3.5-3-5.8-4.6c-2.2-1.4-4.1-2.9-5.6-4.4
			c-1.2-1.2-2.2-2.4-3-3.7L2.6,56.6C2.9,56.8,2.7,57.7,2.9,58z"/>
	</g>
	<path class="st1" d="M19.6,28.4c1.2-0.7,2.7-1.1,4.5-1.1c1.8,0,3.7,0.4,5.9,1.3c1.3,0.5,2.6,1.3,3.9,2.3c1.3,1,2.4,2.1,3.4,3.3
		c1,1.2,1.7,2.3,2.2,3.5c0.3,0.6,0.8,1,1.5,1.3c0.9,0.4,1.9,0.3,2.9-0.2c1-0.5,1.7-1.2,2-2.1c0.5-1.2,0.3-2.5-0.4-4
		c-1-2.3-2.6-4.4-4.8-6.4c-2.2-2-4.8-3.6-7.8-4.8c-3.3-1.3-6.5-1.9-9.6-1.8c-0.5,0-0.9,0.1-1.4,0.1L10.3,42.1c0.8,1.3,1.8,2.6,3,3.7
		c1.6,1.5,3.4,3,5.6,4.4c2.4,1.6,4.3,3.1,5.8,4.6c1.5,1.5,2.5,3,3.1,4.6c0.5,1.6,0.4,3.2-0.3,5c-0.6,1.4-1.6,2.5-2.9,3.2
		c-1.4,0.7-3,1.1-4.9,1.1c-1.9,0-3.7-0.4-5.6-1.1c-2.7-1.1-4.8-2.4-6.4-4.1c-1.6-1.7-3.2-3.3-4.3-5.7c-0.2-0.4-0.5-0.9-0.6-1.4
		L0.5,61c-1.2,2.4-0.3,5.4,2.1,6.6l17,8.8c0.4,0,0.8,0,1.2,0c3.1-0.2,6-1,8.5-2.6c2.5-1.6,4.4-3.8,5.5-6.8c1-2.6,1.5-4.9,1.4-6.9
		c-0.1-2-0.6-3.9-1.5-5.6c-1-1.7-2.3-3.4-4.1-5c-1.8-1.6-3.9-3.2-6.2-4.8c-1.9-1.4-3.6-2.8-5-4.1c-1.4-1.3-2.3-2.7-2.8-4.2
		c-0.5-1.5-0.4-3,0.3-4.7C17.5,30.2,18.4,29.1,19.6,28.4z"/>
</g>
</svg>
