<?xml version="1.0" encoding="utf-8"?>
<!-- Generator: Adobe Illustrator 24.2.3, SVG Export Plug-In . SVG Version: 6.00 Build 0)  -->
<svg version="1.1" id="Capa_1" xmlns="http://www.w3.org/2000/svg" xmlns:xlink="http://www.w3.org/1999/xlink" x="0px" y="0px"
	 width="200px" height="45.3335px" viewBox="0 0 200 45.3335" style="enable-background:new 0 0 200 45.3335;" xml:space="preserve"
	>
<style type="text/css">
	.st0{fill:#EC1C2D;}
	.st1{fill:#61504D;}
</style>
<g>
	<path class="st0" d="M17.3029,13.4829c0.0808,0.0156,0.1611,0.0406,0.2426,0.0456c1.4249,0.0838,2.8479,0.1889,4.2603,0.4023
		c1.6663,0.2518,3.29,0.6575,4.8339,1.3485c0.5906,0.2642,1.1428,0.5916,1.6268,1.0256c0.2315,0.2074,0.427,0.4436,0.5619,0.7257
		c0.2446,0.5115,0.2208,1.0115-0.0796,1.4933c-0.2615,0.4198-0.6241,0.7401-1.0295,1.0139
		c-0.6464,0.4365-1.3584,0.7388-2.0876,1.003c-1.2586,0.456-2.5624,0.7277-3.8784,0.95c-1.8643,0.315-3.7458,0.3884-5.6314,0.4087
		c-0.2684,0.003-0.5368,0.0005-0.8318,0.0005c-0.1205-2.3282-0.2394-4.6264-0.3584-6.9244
		c-0.2523,0.5363-0.4149,1.1012-0.5973,1.6588c-0.1856,0.5671-0.3678,1.1351-0.5507,1.7029
		c-0.1829,0.5678-0.3643,1.1361-0.547,1.7042c-0.1822,0.5668-0.3646,1.1336-0.5524,1.7178
		c-0.1963-0.0173-0.3799-0.0305-0.5629-0.0498c-1.719-0.1822-3.4144-0.4835-5.0671-1.0028
		c-0.8122-0.2553-1.607-0.5559-2.3188-1.0295c-0.3549-0.2362-0.7004-0.5014-1.001-0.8023c-0.689-0.6893-0.7026-1.5371-0.0706-2.2821
		c0.3051-0.3596,0.6774-0.6399,1.0806-0.8798c0.9373-0.5577,1.9525-0.9269,2.9986-1.2139c1.4511-0.398,2.9284-0.6583,4.4259-0.7971
		c0.7614-0.0706,1.525-0.1157,2.2876-0.1747c0.0721-0.0057,0.143-0.0288,0.2146-0.0436
		C15.5486,13.4829,16.4257,13.4829,17.3029,13.4829z"/>
	<path class="st0" d="M0.0021,26.6985c0.034-0.053,0.0843-0.1019,0.0994-0.1599c0.1269-0.4848,0.4057-0.8761,0.744-1.232
		c0.5016-0.5279,1.1036-0.9148,1.7471-1.2434c1.2377-0.6325,2.5533-1.038,3.9045-1.3399c1.8549-0.4144,3.7364-0.5973,5.6327-0.6553
		c0.1098-0.0035,0.2198-0.0005,0.375-0.0005c-1.0481,3.262-2.0844,6.4877-3.1297,9.7413c-0.2307-0.024-0.4513-0.0414-0.6704-0.0711
		c-1.7704-0.2399-3.5062-0.6199-5.1684-1.2923c-0.7904-0.3197-1.5391-0.7155-2.2135-1.2422
		c-0.4922-0.3844-0.9066-0.8328-1.1379-1.4263c-0.0603-0.1547-0.122-0.3086-0.183-0.4627
		C0.0021,27.1092,0.0021,26.9037,0.0021,26.6985z"/>
	<path class="st0" d="M15.7912,31.8503c-0.0221-0.5963-0.0387-1.1929-0.0677-1.7889c-0.0426-0.8759-0.0967-1.7513-0.1413-2.627
		c-0.0843-1.6586-0.1656-3.3173-0.2471-4.9761c-0.0045-0.0905-0.0005-0.1812-0.0005-0.3051
		c0.3348,0.0258,0.6489,0.0409,0.9609,0.0758c1.345,0.1499,2.6786,0.3648,3.987,0.7188c1.0283,0.2781,2.0341,0.6166,2.9812,1.1118
		c0.5805,0.3036,1.1386,0.6414,1.615,1.0972c0.4035,0.3859,0.7326,0.8236,0.8754,1.3748c0.1507,0.5822,0.0459,1.1279-0.261,1.6392
		c-0.2486,0.4144-0.5896,0.7448-0.9624,1.0444c-0.5938,0.4773-1.2635,0.8248-1.959,1.126
		c-1.4033,0.6075-2.8694,0.9934-4.3766,1.2301c-0.5524,0.0867-1.1081,0.1534-1.662,0.2317
		c-0.0434,0.0062-0.084,0.0315-0.1259,0.0478C16.2017,31.8503,15.9965,31.8503,15.7912,31.8503z"/>
	<path class="st1" d="M199.998,25.6345c-0.0481,0.1281-0.0848,0.2617-0.146,0.3832c-0.2236,0.4434-0.5961,0.7143-1.062,0.8486
		c-0.8047,0.2317-1.5882,0.14-2.3436-0.2069c-0.3398-0.1559-0.6483-0.3609-0.9316-0.6409c0.1371-0.1636,0.2667-0.3185,0.4082-0.4875
		c0.1051,0.081,0.1993,0.1519,0.292,0.2253c0.5656,0.4481,1.2077,0.6516,1.9282,0.6094c0.2659-0.0156,0.5168-0.082,0.7398-0.2283
		c0.2739-0.1794,0.4305-0.429,0.4446-0.7653c0.0151-0.3646-0.1276-0.6501-0.453-0.8003c-0.3021-0.1395-0.6258-0.2355-0.945-0.3341
		c-0.2756-0.085-0.5616-0.1363-0.837-0.2226c-0.1945-0.061-0.3839-0.1447-0.5666-0.2364c-1.0087-0.5076-0.9401-1.7897-0.3743-2.3652
		c0.284-0.289,0.6209-0.4783,1.0169-0.55c0.98-0.177,1.8673,0.0258,2.6708,0.6761c-0.1311,0.1765-0.2558,0.3438-0.3881,0.5217
		c-0.1103-0.0753-0.2008-0.1385-0.2927-0.1998c-0.5073-0.3386-1.0655-0.4994-1.6717-0.4228
		c-0.2154,0.0273-0.4384,0.1043-0.6268,0.2129c-0.575,0.3324-0.5871,1.2149,0.0461,1.5366c0.3621,0.1839,0.748,0.2843,1.1393,0.3723
		c0.4013,0.0902,0.7966,0.1968,1.1619,0.3928c0.2677,0.1438,0.5009,0.3277,0.6456,0.6013c0.059,0.1118,0.0974,0.2345,0.145,0.3522
		C199.998,25.1492,199.998,25.3919,199.998,25.6345z"/>
	<path class="st1" d="M83.345,30.0579c-0.6741,0-1.3175,0.0059-1.9604-0.0064c-0.0974-0.002-0.2065-0.0741-0.2872-0.1413
		c-0.8387-0.6987-1.6727-1.403-2.5076-2.1062c-2.0413-1.7185-4.0831-3.4363-6.1231-5.1565
		c-0.2635-0.2221-0.5168-0.4563-0.8075-0.7138c0.1143,2.7113,0.0265,5.3965,0.0617,8.0738
		c-0.2268,0.0602-2.3636,0.0768-2.7527,0.0285c-0.0528-0.2035-0.0761-11.7268-0.0221-12.2735
		c0.0749-0.0062,0.1549-0.0178,0.2347-0.0181c0.5319-0.0017,1.0637,0.0055,1.5954-0.0045c0.171-0.0032,0.2972,0.0491,0.4268,0.1579
		c2.2789,1.9143,4.5627,3.8226,6.8426,5.7358c0.8635,0.7247,1.72,1.4578,2.5994,2.2036c-0.1358-2.6868-0.0347-5.3719-0.0741-8.0753
		c0.9423,0,1.8502,0,2.7745,0C83.345,21.8579,83.345,25.9396,83.345,30.0579z"/>
	<path class="st1" d="M150.2111,27.5337c0,0.8603,0,1.6772,0,2.5092c-4.1538,0-8.2909,0-12.4465,0c0-4.095,0-8.1767,0-12.2792
		c4.1064,0,8.2057,0,12.3256,0c0,0.7544,0,1.5052,0,2.2931c-0.7683,0.0131-1.5394,0.004-2.3102,0.0057
		c-0.7745,0.0017-1.5488,0.0002-2.3233,0.0002c-0.7651,0-1.5302,0-2.2953,0c-0.772,0-1.5441,0-2.3329,0c0,0.8189,0,1.6063,0,2.4217
		c1.8945,0,3.7748,0,5.6745,0c0,0.7775,0,1.5275,0,2.3062c-1.8871,0-3.7669,0-5.6384,0c-0.0639,0.2268-0.0838,2.2356-0.0305,2.7373
		c0.3824,0.002,0.7703,0.0047,1.1582,0.0055c0.3918,0.001,0.7837,0.0002,1.1755,0.0002c0.3918,0,0.7837,0,1.1755,0
		c0.3918,0,0.7837,0,1.1755,0c0.3824,0,0.7651,0,1.1475,0c0.3918,0,0.7837,0,1.1755,0c0.3918,0,0.7837,0,1.1755,0
		C149.4083,27.5337,149.7987,27.5337,150.2111,27.5337z"/>
	<path class="st1" d="M126.7162,30.0421c0-3.2992,0-6.5789,0-9.8833c-1.8452,0-3.6608,0-5.4686,0
		c-0.0672-0.2233-0.0798-2.0772-0.0208-2.3989c4.6851,0,9.3735,0,14.0606,0c0.058,0.203,0.0699,2.0432,0.0119,2.3845
		c-1.8202,0-3.6449,0-5.5072,0c-0.0213,0.4285-0.0072,0.835-0.0097,1.2407c-0.0027,0.4107-0.0005,0.8211-0.0005,1.2318
		s0,0.8211,0,1.2318c0,0.4198,0,0.8397,0,1.2598c0,0.4107,0,0.8211,0,1.2318s0,0.8211,0,1.2318s0,0.8211,0,1.2318
		c0,0.408,0,0.8159,0,1.2392C128.7549,30.0421,127.76,30.0421,126.7162,30.0421z"/>
	<path class="st1" d="M174.2703,21.5846c-0.1566,0.1842-0.2937,0.3457-0.435,0.5118c-0.1056-0.0783-0.1941-0.1457-0.2848-0.2104
		c-0.6042-0.431-1.2821-0.5562-1.9966-0.4198c-0.9187,0.1755-1.6152,0.9396-1.7877,1.898
		c-0.0773,0.4298-0.0617,0.8541,0.0461,1.2759c0.2845,1.1133,1.2068,1.7971,2.3549,1.7485c0.5237-0.0223,1.007-0.1698,1.4529-0.4486
		c0.1395-0.0872,0.2117-0.1861,0.2057-0.3596c-0.0121-0.3447-0.0025-0.6905-0.0047-1.0357
		c-0.0005-0.0719-0.0139-0.1438-0.024-0.2421c-0.5971,0-1.1807,0-1.7812,0c0-0.2104,0-0.3928,0-0.5765
		c0.1931-0.0587,1.8836-0.0796,2.4388-0.027c0.0089,0.0642,0.0268,0.1341,0.027,0.204c0.0022,0.6625-0.0005,1.325,0.003,1.9875
		c0.0007,0.1284-0.0218,0.229-0.1341,0.3143c-1.0221,0.7758-2.1544,1.0243-3.376,0.6201c-1.1609-0.3839-1.7639-1.262-1.9342-2.4482
		c-0.0793-0.5522-0.0243-1.098,0.1693-1.6259c0.4687-1.2784,1.6782-2.0574,3.0392-1.9679c0.6479,0.0426,1.2482,0.2104,1.7738,0.6042
		C174.0968,21.4423,174.1677,21.5023,174.2703,21.5846z"/>
	<path class="st1" d="M168.0796,20.8973c0,0.2087,0,0.3918,0,0.606c-1.2105,0-2.4082,0-3.6251,0c0,0.6954,0,1.3599,0,2.0526
		c1.0806,0,2.1486,0,3.235,0c0,0.2166,0,0.4052,0,0.6221c-1.0841,0-2.1517,0-3.2367,0c0,0.7039,0,1.3795,0,2.0918
		c1.2191,0,2.4346,0,3.6683,0c0,0.225,0,0.4139,0,0.6196c-1.4536,0-2.8942,0-4.3558,0c0-1.9994,0-3.989,0-5.9918
		C165.2036,20.8973,166.6265,20.8973,168.0796,20.8973z"/>
	<path class="st1" d="M175.9318,20.8973c0.2498,0,0.4523,0,0.6905,0c0,0.1133,0,0.2134,0,0.3135
		c0,1.0266-0.0054,2.0531,0.004,3.0796c0.0025,0.2592,0.0255,0.5242,0.0853,0.7755c0.1782,0.7497,0.7074,1.2048,1.4744,1.2836
		c0.1933,0.0198,0.3938,0.0206,0.5862-0.0062c0.8352-0.1155,1.3634-0.6719,1.4595-1.5267c0.0208-0.1849,0.0282-0.3723,0.0287-0.5586
		c0.0027-1.0172,0.0013-2.0346,0.0013-3.0516c0-0.0999,0-0.1998,0-0.3108c0.2409,0,0.4434,0,0.666,0
		c0.0087,0.0773,0.0233,0.1485,0.0233,0.2193c0.0015,1.092,0.0079,2.184-0.004,3.2757c-0.003,0.2776-0.0416,0.5599-0.1041,0.8305
		c-0.2293,0.9931-0.9612,1.6472-1.9743,1.7453c-0.3395,0.033-0.6944,0.0285-1.0293-0.0317
		c-1.0355-0.1861-1.7049-0.8994-1.8551-1.9359c-0.0332-0.23-0.0488-0.4642-0.0498-0.6967
		c-0.0052-1.0266-0.0022-2.0531-0.0022-3.0796C175.9318,21.1219,175.9318,21.0215,175.9318,20.8973z"/>
	<path class="st1" d="M157.8483,26.012c0.1405-0.1668,0.2662-0.316,0.4075-0.4833c0.0949,0.0746,0.1814,0.141,0.2662,0.2089
		c0.5703,0.4575,1.2194,0.6816,1.9494,0.6216c0.2178-0.0178,0.4436-0.0776,0.6414-0.17c0.4293-0.2008,0.6147-0.6042,0.5276-1.0662
		c-0.0486-0.2578-0.2007-0.4516-0.4322-0.5512c-0.3063-0.1319-0.6261-0.2355-0.9453-0.3338
		c-0.3113-0.0959-0.6317-0.1621-0.9433-0.2573c-0.1591-0.0486-0.3111-0.1257-0.4607-0.2008
		c-1.007-0.5056-0.9321-1.7778-0.3961-2.3453c0.3294-0.3487,0.7344-0.548,1.1996-0.6045c0.8662-0.1051,1.6707,0.0672,2.3773,0.6052
		c0.0364,0.0278,0.0701,0.0595,0.1269,0.1083c-0.1276,0.1725-0.2518,0.3403-0.3827,0.5175
		c-0.1113-0.0758-0.2027-0.1385-0.2947-0.2003c-0.4984-0.3336-1.0459-0.4808-1.6447-0.4322
		c-0.2565,0.0208-0.4902,0.1024-0.7036,0.2478c-0.5004,0.3413-0.519,1.1889,0.0746,1.499c0.3688,0.1926,0.7671,0.2823,1.1631,0.3886
		c0.3499,0.0942,0.7024,0.1921,1.0355,0.3321c0.5921,0.2491,0.9406,0.692,0.9406,1.3592c0,0.6811-0.3135,1.176-0.916,1.4856
		c-0.5009,0.2573-1.0407,0.2825-1.5847,0.2248c-0.7262-0.0771-1.3599-0.3767-1.9121-0.8518
		C157.9147,26.0908,157.8927,26.061,157.8483,26.012z"/>
	<path class="st1" d="M154.8809,17.4355c0.175,0,0.3197,0,0.4808,0c0,4.3094,0,8.6032,0,12.9111c-0.1643,0-0.3172,0-0.4808,0
		C154.8809,26.0395,154.8809,21.7519,154.8809,17.4355z"/>
	<g>
		<path class="st1" d="M48.0213,23.0693c-0.0305,0.0349-0.0625,0.0689-0.0962,0.1016
			C47.9588,23.1382,47.9908,23.1043,48.0213,23.0693z"/>
		<path class="st1" d="M35.1907,22.2538c0-0.091,0.0002-0.1817,0.0005-0.2716C35.1909,22.0721,35.1907,22.1628,35.1907,22.2538z"/>
		<path class="st1" d="M35.19,23.2252c0-0.0937,0-0.1871,0-0.2801C35.19,23.0381,35.19,23.1315,35.19,23.2252z"/>
		<path class="st1" d="M35.19,22.9451c0-0.2327,0.0002-0.4637,0.0005-0.6915C35.1905,22.4815,35.1902,22.7122,35.19,22.9451z"/>
		<path class="st1" d="M35.1917,21.5819c0.0002-0.088,0.0005-0.1752,0.0005-0.2615C35.1922,21.4066,35.1919,21.4939,35.1917,21.5819
			z"/>
		<path class="st1" d="M35.1924,21.3201c0.0002-0.1296,0.0007-0.2573,0.001-0.3829C35.1929,21.0629,35.1927,21.1908,35.1924,21.3201
			z"/>
		<path class="st1" d="M35.1934,20.9375c0.0002-0.0838,0.0005-0.1666,0.0007-0.2481
			C35.1939,20.7709,35.1937,20.8537,35.1934,20.9375z"/>
		<path class="st1" d="M35.1912,24.7745c-0.0002-0.14-0.0005-0.2806-0.0005-0.4213C35.1907,24.4939,35.1909,24.6344,35.1912,24.7745
			z"/>
		<path class="st1" d="M35.1942,26.0092c-0.0005-0.1336-0.0007-0.2687-0.0012-0.405
			C35.1934,25.7406,35.1937,25.8757,35.1942,26.0092z"/>
		<path class="st1" d="M35.1929,25.6043c-0.0002-0.091-0.0005-0.1822-0.0007-0.2741
			C35.1924,25.4221,35.1927,25.5133,35.1929,25.6043z"/>
		<path class="st1" d="M35.1902,23.6478c0-0.0942,0-0.1881,0-0.2818C35.19,23.4597,35.19,23.5536,35.1902,23.6478z"/>
		<path class="st1" d="M35.1952,26.2742c-0.0002-0.0877-0.0005-0.176-0.001-0.2649C35.1944,26.0982,35.1949,26.1864,35.1952,26.2742
			z"/>
		<path class="st1" d="M35.1917,25.0533c-0.0002-0.0927-0.0002-0.1856-0.0005-0.2788
			C35.1914,24.8677,35.1914,24.9609,35.1917,25.0533z"/>
		<path class="st1" d="M35.1942,20.6894c0.0002-0.0818,0.0005-0.1623,0.001-0.2419C35.1949,20.5268,35.1947,20.6076,35.1942,20.6894
			z"/>
		<path class="st1" d="M45.7715,30.0093c0.0488-0.0042,0.0974-0.0089,0.146-0.0139c0.3718-0.0377,0.7363-0.1098,1.0838-0.2387
			c-0.3475,0.1289-0.7118,0.201-1.0838,0.2387C45.8689,30.0004,45.82,30.0049,45.7715,30.0093z"/>
		<path class="st1" d="M47.8736,23.2195c-0.088,0.0793-0.1854,0.1519-0.2929,0.2179
			C47.6882,23.3714,47.7858,23.2988,47.8736,23.2195z"/>
		<path class="st1" d="M47.1766,23.6349c0.0178-0.0072,0.0349-0.0141,0.0523-0.0211c0.1271-0.052,0.2446-0.111,0.3519-0.1767
			c-0.1076,0.0657-0.2248,0.1247-0.3519,0.1767C47.2116,23.6208,47.1945,23.6277,47.1766,23.6349z"/>
		<path class="st1" d="M47.1494,23.6458c-0.0186,0.0074-0.0382,0.0151-0.0592,0.0235
			C47.1112,23.6609,47.1305,23.6532,47.1494,23.6458z"/>
		<path class="st1" d="M47.0572,23.6822c-0.0228,0.0089-0.0473,0.0186-0.0744,0.0295
			C47.0101,23.7008,47.0346,23.6912,47.0572,23.6822z"/>
		<path class="st1" d="M35.1957,20.329c0.0002-0.0783,0.0007-0.1556,0.001-0.2315C35.1964,20.1734,35.1961,20.2507,35.1957,20.329z"
			/>
		<path class="st1" d="M48.4852,20.4946c-0.002-0.1445-0.005-0.2892-0.0087-0.4337c-0.004-0.1532-0.0173-0.2994-0.0404-0.4379
			c0.0228,0.1385,0.0364,0.2845,0.0404,0.4379C48.4803,20.2053,48.4833,20.3501,48.4852,20.4946z"/>
		<path class="st1" d="M35.1966,26.663c-0.0005-0.1276-0.001-0.2575-0.0015-0.3889C35.1957,26.4055,35.1961,26.5354,35.1966,26.663z
			"/>
		<path class="st1" d="M48.4852,20.4946c0.002,0.1445,0.003,0.2892,0.0032,0.4337C48.4882,20.7838,48.4872,20.639,48.4852,20.4946z"
			/>
		<path class="st1" d="M35.2036,19.0643c0.0007-0.0917,0.0017-0.1794,0.0025-0.2632
			C35.2053,18.8848,35.2043,18.9725,35.2036,19.0643z"/>
		<path class="st1" d="M35.1991,19.6578c0.0005-0.0706,0.001-0.1395,0.0012-0.2072C35.2001,19.5181,35.1996,19.5872,35.1991,19.6578
			z"/>
		<path class="st1" d="M35.2014,19.3505c0.0005-0.0659,0.001-0.1304,0.0015-0.1933C35.2023,19.2199,35.2019,19.2843,35.2014,19.3505
			z"/>
		<path class="st1" d="M48.2701,19.0499c0.0382,0.087,0.0711,0.1784,0.0989,0.2739C48.3413,19.2283,48.3083,19.1371,48.2701,19.0499
			z"/>
		<path class="st1" d="M35.2071,18.7188c0.0012-0.1078,0.0025-0.2082,0.0037-0.3004
			C35.2095,18.5106,35.2083,18.6109,35.2071,18.7188z"/>
		<path class="st1" d="M35.4973,17.7435c1.6695,0,3.3389-0.0007,5.0083-0.0005C38.8361,17.7427,37.1667,17.7435,35.4973,17.7435z"/>
		<path class="st1" d="M35.1984,27.04c-0.0005-0.1234-0.0012-0.2491-0.0017-0.377C35.1971,26.7907,35.1976,26.9166,35.1984,27.04z"
			/>
		<path class="st1" d="M48.3415,28.6685c-0.0193,0.0379-0.0397,0.0751-0.0615,0.1118
			C48.3018,28.7436,48.3224,28.7064,48.3415,28.6685z"/>
		<path class="st1" d="M47.3729,29.5927c-0.091,0.0471-0.1837,0.0895-0.2773,0.1276
			C47.1893,29.6822,47.2817,29.6398,47.3729,29.5927z"/>
		<path class="st1" d="M47.9112,29.2257c-0.0491,0.0444-0.1009,0.087-0.1551,0.1279C47.8104,29.3126,47.8622,29.27,47.9112,29.2257z
			"/>
		<path class="st1" d="M48.4694,25.1894c-0.0188-0.0724-0.0409-0.1425-0.0664-0.2102c-0.0511-0.1358-0.1157-0.2625-0.1938-0.3802
			c-0.026-0.0392-0.0535-0.0773-0.0825-0.1145c-0.0434-0.0558-0.0902-0.1091-0.1403-0.1601
			c-0.2003-0.2042-0.4536-0.3708-0.7579-0.4977c-0.0275-0.0114-0.0545-0.0238-0.083-0.0372
			c-0.0476-0.0223-0.0989-0.0478-0.1626-0.0778c0.027-0.0107,0.0516-0.0203,0.0744-0.0295
			c0.0114-0.0045,0.0223-0.0087,0.0327-0.0129c0.0211-0.0084,0.0406-0.0161,0.0592-0.0235
			c0.0094-0.0037,0.0183-0.0072,0.0273-0.0109c0.0178-0.0072,0.0349-0.0141,0.0523-0.0211c0.1271-0.052,0.2446-0.111,0.3519-0.1767
			c0.1076-0.0657,0.205-0.1385,0.2929-0.2179c0.0176-0.0159,0.0347-0.032,0.0516-0.0483c0.0337-0.0327,0.0657-0.0667,0.0962-0.1016
			c0.0458-0.0523,0.088-0.1071,0.1269-0.1643c0.0518-0.0761,0.0972-0.1564,0.1368-0.2409c0.0099-0.0211,0.0193-0.0424,0.0285-0.0642
			c0.1001-0.2377,0.1539-0.5066,0.1628-0.8045c0.0064-0.2166,0.0102-0.4335,0.0116-0.6503
			c0.0005-0.0724,0.0007-0.1445,0.0007-0.2169c0-0.1447-0.0012-0.2892-0.0032-0.4337c-0.002-0.1445-0.005-0.2892-0.0087-0.4337
			c-0.004-0.1532-0.0173-0.2994-0.0404-0.4379c-0.0171-0.1038-0.0397-0.2037-0.0674-0.2991
			c-0.0278-0.0954-0.0607-0.1869-0.0989-0.2739c-0.1145-0.2612-0.2763-0.4838-0.4843-0.6667
			c-0.0461-0.0406-0.0947-0.0793-0.1455-0.116c-0.0508-0.0367-0.1038-0.0714-0.1591-0.1041
			c-0.0553-0.0327-0.113-0.0634-0.1727-0.0922c-0.0897-0.0431-0.1846-0.0818-0.2845-0.1157
			c-0.1333-0.0454-0.2754-0.0825-0.4265-0.1118c-0.1772-0.034-0.3576-0.0577-0.5391-0.0731
			c-0.1814-0.0154-0.3636-0.0223-0.5445-0.0228c-1.6695-0.0035-3.3389-0.0045-5.0083-0.0047
			c-1.6695-0.0002-3.3389,0.0005-5.0083,0.0005c-0.0907,0-0.1814,0-0.2659,0c-0.0079,0.0406-0.0149,0.2838-0.0206,0.6751
			c-0.0012,0.0922-0.0025,0.1926-0.0037,0.3004c-0.0002,0.027-0.0005,0.0543-0.001,0.0823
			c-0.001,0.0838-0.0017,0.1715-0.0025,0.2632c-0.0002,0.0305-0.0005,0.0615-0.0007,0.0929
			c-0.0007,0.0626-0.0012,0.127-0.0017,0.1932c-0.0002,0.033-0.0005,0.0664-0.0007,0.1001
			c-0.0005,0.0677-0.001,0.1366-0.0012,0.2072c-0.001,0.141-0.0017,0.2877-0.0025,0.4397c-0.0005,0.0758-0.0007,0.1532-0.001,0.2315
			c-0.0002,0.0392-0.0002,0.0786-0.0005,0.1185c-0.0002,0.0796-0.0007,0.1601-0.001,0.2419
			c-0.0002,0.0818-0.0005,0.1646-0.0007,0.2481c-0.0005,0.1257-0.0007,0.2533-0.001,0.3829
			c-0.0002,0.0865-0.0005,0.1735-0.0005,0.2615c-0.0002,0.1319-0.0005,0.2654-0.0007,0.4005
			c-0.0002,0.09-0.0002,0.1804-0.0005,0.2716c-0.0002,0.2278-0.0005,0.4585-0.0005,0.6915c0,0.0932,0,0.1866,0,0.2801
			c0,0.0468,0,0.0937,0,0.1405c0,0.0939,0,0.1879,0,0.2818c0,0.2352,0.0002,0.4707,0.0005,0.7056
			c0.0002,0.1408,0.0002,0.2813,0.0005,0.4213c0.0002,0.0932,0.0002,0.1864,0.0005,0.2788
			c0.0002,0.0924,0.0005,0.1849,0.0005,0.2768c0.0002,0.0919,0.0005,0.1832,0.0007,0.2741c0.0002,0.1363,0.0007,0.2714,0.0012,0.405
			c0.0002,0.089,0.0005,0.1775,0.001,0.2649c0.0005,0.1314,0.001,0.2612,0.0015,0.3889s0.001,0.2535,0.0017,0.377
			c0.0082,1.6868,0.0221,2.9453,0.0414,3.0184c0.0967,0,0.1983,0,0.3001,0l0,0c1.5342,0,3.0685,0.0005,4.6026,0.0005
			c0.7671,0,1.5342-0.0002,2.3015-0.0007c0.7671-0.0005,1.5342-0.0012,2.3015-0.0025c0.1955-0.0002,0.3913-0.0054,0.5869-0.0156
			c0.1467-0.0074,0.2932-0.0178,0.4394-0.0307c0.0488-0.0042,0.0974-0.0089,0.146-0.0139c0.3718-0.0377,0.7363-0.1098,1.0838-0.2387
			c0.0315-0.0116,0.063-0.0238,0.0944-0.0367c0.0939-0.0379,0.1864-0.0803,0.2773-0.1276c0.0302-0.0156,0.0605-0.032,0.0905-0.0488
			c0.1046-0.0587,0.2022-0.1219,0.2927-0.1903c0.0543-0.0409,0.1061-0.0835,0.1552-0.1279
			c0.1472-0.1331,0.2709-0.2816,0.3688-0.4456c0.0218-0.0364,0.0424-0.0736,0.0615-0.1118
			c0.0193-0.0379,0.0372-0.0768,0.0538-0.1162c0.0917-0.2174,0.144-0.458,0.1539-0.7222c0.0035-0.0907,0.0064-0.1817,0.0092-0.2724
			c0.0191-0.636,0.0211-1.2742-0.0178-1.9081C48.5306,25.4875,48.5068,25.3341,48.4694,25.1894z M38.2202,19.9897
			c0.0867-0.0072,0.1668-0.0196,0.2469-0.0196c1.9669-0.001,3.9334-0.0032,5.9003,0.0025c0.2402,0.0007,0.4863,0.0198,0.7192,0.0744
			c0.3824,0.0897,0.5396,0.3133,0.5423,0.7046c0.0025,0.3542,0.0032,0.7086-0.0002,1.0628
			c-0.0035,0.3693-0.147,0.5807-0.5044,0.6759c-0.2223,0.0592-0.459,0.0875-0.6893,0.0882
			c-1.9855,0.0067-3.9706,0.004-5.9561,0.0032c-0.0813,0-0.1626-0.0109-0.2585-0.0176
			C38.2202,21.6998,38.2202,20.8554,38.2202,19.9897z M45.6346,27.1146c-0.0416,0.2392-0.2094,0.3975-0.455,0.4372
			c-0.2201,0.0354-0.4436,0.0669-0.6657,0.0674c-2.0061,0.005-4.0122,0.0032-6.0183,0.0025c-0.0825,0-0.1651-0.0082-0.2776-0.0141
			c0-0.9354,0-1.837,0-2.7619c0.0917-0.0084,0.1718-0.0221,0.2518-0.0221c1.978-0.0012,3.9562-0.0035,5.9343,0.0025
			c0.2595,0.0007,0.52,0.0357,0.7775,0.0731c0.2478,0.0359,0.4119,0.199,0.4533,0.4374
			C45.737,25.9274,45.7375,26.5238,45.6346,27.1146z"/>
	</g>
	<path class="st1" d="M101.8005,19.2187c-0.1866-0.6573-0.6042-1.0734-1.2583-1.2672c-0.4607-0.1366-0.9329-0.1985-1.4082-0.1995
		c-3.1351-0.0069-6.2701-0.0067-9.4052-0.0002c-0.485,0.001-0.9666,0.063-1.4353,0.2057c-0.6414,0.1955-1.0511,0.6087-1.2365,1.2543
		c-0.1326,0.4625-0.1747,0.9336-0.175,1.411c-0.0002,2.1838-0.0035,4.3674,0.0032,6.5512c0.001,0.3346,0.0258,0.6724,0.0771,1.0028
		c0.1636,1.0548,0.6806,1.5822,1.7319,1.7666c0.3477,0.061,0.7034,0.1031,1.0558,0.1056c1.5582,0.0112,3.1163,0.005,4.6745,0.0047
		c1.5676,0,3.1351,0.0047,4.7027-0.0027c0.5329-0.0025,1.06-0.0677,1.5671-0.2506c0.5264-0.1901,0.8779-0.547,1.0595-1.0761
		c0.1405-0.4099,0.2117-0.8323,0.2127-1.2635c0.0052-2.3144,0.0069-4.6286,0.0067-6.9428
		C101.973,20.0779,101.9214,19.6442,101.8005,19.2187z M98.9111,27.5164c-2.9926,0-5.9705,0-8.9641,0c0-2.4544,0-4.8923,0-7.3477
		c2.9926,0,5.9705,0,8.9641,0C98.9111,22.6229,98.9111,25.061,98.9111,27.5164z"/>
	<path class="st1" d="M120.2689,29.9863c-1.7582-1.4449-3.5166-2.8893-5.2748-4.3339c-0.0216-0.0176-0.0414-0.0374-0.0615-0.057
		c-0.0067-0.0064-0.0129-0.0141-0.0161-0.0226c-0.0027-0.0072-0.0022-0.0164-0.0005-0.0243
		c0.002-0.0089,0.0067-0.0173,0.0173-0.0429c0.2627,0,0.5331,0.0116,0.8023-0.0027c0.4367-0.0233,0.8799-0.025,1.3071-0.1046
		c1.1101-0.2072,1.7785-0.9535,1.8132-2.0653c0.0357-1.1371,0.0325-2.2767,0.0005-3.414c-0.0283-1.0072-0.5805-1.7173-1.5153-1.9877
		c-0.3718-0.1076-0.7696-0.1742-1.1557-0.1757c-3.4702-0.0146-6.9405-0.0107-10.4107-0.0112c-0.0533,0-0.1066,0.0121-0.1554,0.0181
		c-0.0617,0.4032-0.0402,12.0919,0.0223,12.2872c0.9666,0,1.9354,0,2.9582,0c0-1.5225,0-3.0189,0-4.5441c0.1346,0,0.235,0,0.3356,0
		c0.6157,0,1.2315,0.0079,1.8469-0.0045c0.2119-0.0042,0.3648,0.0602,0.5187,0.2055c1.4858,1.4021,2.9795,2.7956,4.467,4.1959
		c0.1165,0.1098,0.232,0.1596,0.3938,0.1589c1.3061-0.0057,2.6119-0.003,3.9181-0.0042c0.0679,0,0.1356-0.0136,0.2097-0.0218
		C120.2761,30.0029,120.2751,29.9915,120.2689,29.9863z M108.8475,23.1791c-0.0729,0-0.1455-0.0082-0.2424-0.0141
		c0-1.0395,0-2.0455,0-3.0729c0.0776-0.0104,0.148-0.028,0.2184-0.028c1.9959-0.0015,3.9917-0.0032,5.9878,0.0017
		c0.2129,0.0005,0.4268,0.0327,0.638,0.0654c0.2159,0.0335,0.3475,0.1765,0.399,0.3827c0.0312,0.1252,0.0496,0.2565,0.0511,0.3856
		c0.0057,0.485,0.003,0.9701,0.0015,1.4551c-0.0002,0.0838-0.0012,0.1688-0.0156,0.2508c-0.0565,0.3249-0.1953,0.4719-0.5212,0.5341
		c-0.1455,0.0278-0.2962,0.0382-0.4446,0.0384C112.8951,23.1806,110.8714,23.1799,108.8475,23.1791z"/>
	<g>
		<path class="st1" d="M66.8533,29.7362c-1.6702-2.9123-3.3403-5.8245-5.0108-8.7368c-0.58-1.0112-1.1649-2.0197-1.7357-3.036
			c-0.0967-0.172-0.2055-0.2268-0.3958-0.2243c-0.7368,0.0102-1.4739,0.0042-2.211,0.0042c-0.1207,0-0.2416,0-0.3787,0
			c-2.2703,4.0122-4.5387,8.0208-6.8067,12.0299c-0.0411,0.0726-0.0756,0.1492-0.1118,0.2245
			c-0.003,0.0062,0.0032,0.0176,0.0072,0.0255c0.0037,0.0077,0.0097,0.0141,0.0243,0.0349c0.0458,0,0.1011,0,0.1566,0
			c0.8769,0,1.754-0.0067,2.6309,0.0054c0.1928,0.0027,0.2781-0.0726,0.3601-0.2312c0.3725-0.7207,0.7572-1.435,1.1383-2.151
			c0.0471-0.0882,0.0994-0.1737,0.1433-0.2498c2.5064,0,4.9868,0,7.4796,0c0.4806,0.8746,0.9599,1.7473,1.4323,2.607
			c0.6144,0.0577,3.2229,0.0332,3.4281-0.0347C66.9525,29.9129,66.9036,29.8242,66.8533,29.7362z M56.0065,24.9623
			c0.8176-1.495,1.6159-2.9545,2.4167-4.419c0.1581,0.1599,2.2727,4.1404,2.3511,4.419
			C59.2008,24.9623,57.6302,24.9623,56.0065,24.9623z"/>
	</g>
	<path class="st1" d="M185.7711,24.4748c0.2543-0.0972,0.4798-0.1616,0.6848-0.2659c0.6268-0.3185,0.9309-0.8489,0.9212-1.5428
		c-0.0097-0.6917-0.3222-1.213-0.9554-1.5237c-0.3676-0.1804-0.7599-0.254-1.1646-0.2568c-0.8023-0.0055-1.6045-0.002-2.4068-0.0007
		c-0.0706,0-0.1415,0.0119-0.2198,0.0191c0,2.0028,0,3.9855,0,5.9834c0.2258,0,0.4342,0,0.6776,0c0-0.7765,0-1.5354,0-2.3166
		c0.4808,0,0.9274,0.0144,1.3723-0.0057c0.2411-0.0109,0.3899,0.0657,0.5304,0.263c0.455,0.6377,0.9294,1.2615,1.402,1.8866
		c0.0575,0.0761,0.144,0.1718,0.2256,0.1804c0.2268,0.0248,0.458,0.0087,0.7559,0.0087
		C186.9647,26.0645,186.3743,25.2783,185.7711,24.4748z M183.318,23.9469c0-0.8127,0-1.5993,0-2.3897
		c0.0322-0.0131,0.0568-0.032,0.0813-0.0317c0.6791,0.0032,1.3584-0.0002,2.0373,0.0186c0.1814,0.005,0.3688,0.058,0.5396,0.1244
		c0.4045,0.1576,0.6533,0.4533,0.6964,0.896c0.0463,0.4749-0.1135,0.8593-0.5222,1.1252c-0.2483,0.1616-0.5276,0.2469-0.8174,0.253
		C184.6731,23.9563,184.013,23.9469,183.318,23.9469z"/>
	<path class="st1" d="M190.2659,21.0411c-1.0888,0.456-1.8578,1.6152-1.8132,2.9889c0.0575,1.7622,1.5465,3.3126,3.6799,2.9123
		c1.4697-0.2758,2.4452-1.518,2.4507-3.0434C194.5877,21.5286,192.3282,20.1771,190.2659,21.0411z M193.4212,25.3923
		c-0.5557,0.7817-1.3399,1.0923-2.2704,0.9453c-0.9887-0.1561-1.6127-0.775-1.8888-1.725
		c-0.1797-0.6176-0.1425-1.2405,0.1343-1.8288c0.4164-0.8848,1.1269-1.3322,1.9369-1.3639
		c1.3453-0.0062,2.3312,0.8496,2.5061,2.0279C193.9438,24.1497,193.8356,24.8099,193.4212,25.3923z"/>
</g>
</svg>
